# Blender 4.1.1
# www.blender.org
mtllib sub-eliche.mtl
o bullone
v 1.550997 0.079819 0.014101
v 1.550063 0.071181 0.027816
v 1.549321 0.057728 0.038700
v 1.548845 0.040775 0.045688
v 1.548680 0.021983 0.048096
v 1.548845 0.003191 0.045688
v 1.549321 -0.013762 0.038700
v 1.550063 -0.027216 0.027816
v 1.550997 -0.035853 0.014101
v 1.550357 0.079819 0.004704
v 1.548845 0.071181 0.009943
v 1.547644 0.057728 0.014101
v 1.546874 0.040775 0.016770
v 1.546608 0.021983 0.017690
v 1.546874 0.003191 0.016770
v 1.547644 -0.013762 0.014101
v 1.548845 -0.027216 0.009943
v 1.550357 -0.035853 0.004704
v 1.550357 0.079819 -0.006910
v 1.548845 0.071181 -0.012148
v 1.547644 0.057728 -0.016306
v 1.546874 0.040775 -0.018975
v 1.546608 0.021983 -0.019895
v 1.546874 0.003191 -0.018975
v 1.547644 -0.013762 -0.016306
v 1.548845 -0.027216 -0.012148
v 1.550357 -0.035853 -0.006910
v 1.550997 0.079819 -0.016306
v 1.550063 0.071181 -0.030021
v 1.549321 0.057728 -0.040905
v 1.548845 0.040775 -0.047893
v 1.548680 0.021983 -0.050301
v 1.548845 0.003191 -0.047893
v 1.549321 -0.013762 -0.040905
v 1.550063 -0.027216 -0.030021
v 1.550997 -0.035853 -0.016306
v 1.552033 0.079819 -0.019895
v 1.552033 0.071181 -0.036847
v 1.552033 0.057728 -0.050301
v 1.552033 0.040775 -0.058939
v 1.552033 0.021983 -0.061915
v 1.552033 0.003191 -0.058939
v 1.552033 -0.013762 -0.050301
v 1.552033 -0.027216 -0.036847
v 1.570798 -0.035853 -0.019895
v 1.552033 0.082796 -0.001103
v 1.553070 0.079819 -0.016306
v 1.591808 0.071181 -0.030021
v 1.599716 0.057728 -0.040905
v 1.604793 0.040775 -0.047893
v 1.606543 0.021983 -0.050301
v 1.604793 0.003191 -0.047893
v 1.599716 -0.013762 -0.040905
v 1.591808 -0.027216 -0.030021
v 1.581844 -0.035853 -0.016306
v 1.588671 0.079819 -0.006910
v 1.604793 0.071181 -0.012148
v 1.617589 0.057728 -0.016306
v 1.625804 0.040775 -0.018975
v 1.628634 0.021983 -0.019895
v 1.625804 0.003191 -0.018975
v 1.617589 -0.013762 -0.016306
v 1.604793 -0.027216 -0.012148
v 1.588671 -0.035853 -0.006910
v 1.570798 -0.038830 -0.001103
v 1.588671 0.079819 0.004704
v 1.604794 0.071181 0.009943
v 1.617589 0.057728 0.014101
v 1.625804 0.040775 0.016770
v 1.628634 0.021983 0.017690
v 1.625804 0.003191 0.016770
v 1.617589 -0.013762 0.014101
v 1.604794 -0.027216 0.009943
v 1.588671 -0.035853 0.004704
v 1.553070 0.079819 0.014101
v 1.591808 0.071181 0.027816
v 1.599716 0.057728 0.038700
v 1.604794 0.040775 0.045688
v 1.606543 0.021983 0.048096
v 1.604794 0.003191 0.045688
v 1.599716 -0.013762 0.038700
v 1.591808 -0.027216 0.027816
v 1.581844 -0.035853 0.014101
v 1.552033 0.079819 0.017690
v 1.552034 0.071181 0.034642
v 1.552034 0.057728 0.048096
v 1.552034 0.040775 0.056734
v 1.552034 0.021983 0.059710
v 1.552034 0.003191 0.056734
v 1.552034 -0.013762 0.048096
v 1.552034 -0.027216 0.034642
v 1.552033 -0.035853 0.017690
vn -0.9513 -0.1399 0.2746
vn -0.9513 0.1399 0.2746
vn -0.4764 0.8684 0.1375
vn -0.9258 -0.2673 0.2673
vn -0.9598 0.0439 0.2771
vn -0.8438 0.4781 0.2436
vn -0.8438 -0.4781 0.2436
vn -0.9598 -0.0439 0.2771
vn -0.9258 0.2673 0.2673
vn -0.1220 -0.9919 0.0352
vn -0.9961 -0.0560 0.0679
vn -0.9961 0.0560 0.0679
vn -0.8194 0.5705 0.0558
vn -0.9917 -0.1094 0.0676
vn -0.9975 0.0174 0.0680
vn -0.9752 0.2111 0.0665
vn -0.9752 -0.2111 0.0665
vn -0.9975 -0.0174 0.0680
vn -0.9917 0.1094 0.0676
vn -0.1414 -0.9899 0.0096
vn -0.9960 0.0889 -0.0000
vn -0.1441 -0.9896 -0.0000
vn -0.9990 -0.0454 -0.0000
vn -0.9990 0.0454 -0.0000
vn -0.8713 0.4908 -0.0000
vn -0.9960 -0.0889 -0.0000
vn -0.9999 0.0141 -0.0000
vn -0.9850 0.1725 -0.0000
vn -0.9850 -0.1725 -0.0000
vn -0.9999 -0.0141 -0.0000
vn -0.9975 -0.0174 -0.0680
vn -0.9917 0.1094 -0.0676
vn -0.1414 -0.9899 -0.0096
vn -0.9961 -0.0560 -0.0679
vn -0.9961 0.0560 -0.0679
vn -0.8194 0.5705 -0.0558
vn -0.9917 -0.1094 -0.0676
vn -0.9975 0.0174 -0.0680
vn -0.9752 0.2111 -0.0665
vn -0.9752 -0.2111 -0.0665
vn -0.8438 0.4781 -0.2436
vn -0.1860 -0.9023 -0.3888
vn -0.9598 -0.0439 -0.2771
vn -0.9258 0.2673 -0.2673
vn -0.0283 -0.9873 -0.1564
vn -0.9513 -0.1399 -0.2746
vn -0.9513 0.1399 -0.2746
vn -0.4764 0.8684 -0.1375
vn -0.9258 -0.2673 -0.2673
vn -0.9598 0.0439 -0.2771
vn 0.1327 -0.6860 -0.7154
vn 0.2044 0.1481 -0.9676
vn 0.0995 0.9154 -0.3900
vn 0.1047 -0.8533 -0.5107
vn 0.2044 -0.1481 -0.9676
vn 0.1327 0.6860 -0.7154
vn 0.0508 -0.9864 -0.1562
vn 0.1797 -0.4338 -0.8829
vn 0.1797 0.4338 -0.8829
vn 0.4764 0.8684 -0.1375
vn 0.7280 0.4361 -0.5290
vn 0.0498 0.9808 -0.1886
vn 0.5862 -0.6892 -0.4259
vn 0.8000 0.1490 -0.5812
vn 0.1811 0.9290 -0.3226
vn 0.3821 -0.8815 -0.2776
vn 0.8000 -0.1490 -0.5812
vn 0.5862 0.6892 -0.4259
vn 0.1329 -0.9864 -0.0966
vn 0.7280 -0.4361 -0.5290
vn 0.8999 -0.4361 -0.0000
vn 0.8999 0.4361 -0.0000
vn 0.0810 0.9967 -0.0000
vn 0.7246 -0.6892 -0.0000
vn 0.9888 0.1490 -0.0000
vn 0.4722 0.8815 -0.0000
vn 0.4722 -0.8815 -0.0000
vn 0.9888 -0.1490 -0.0000
vn 0.7246 0.6892 -0.0000
vn 0.1643 -0.9864 -0.0000
vn 0.5862 0.6892 0.4259
vn 0.1329 -0.9864 0.0966
vn 0.7280 -0.4361 0.5290
vn 0.7280 0.4361 0.5290
vn 0.0498 0.9808 0.1886
vn 0.5862 -0.6892 0.4259
vn 0.8000 0.1490 0.5812
vn 0.1811 0.9290 0.3226
vn 0.3821 -0.8815 0.2776
vn 0.8000 -0.1490 0.5812
vn 0.0707 -0.8787 0.4720
vn 0.2044 -0.1481 0.9676
vn 0.1327 0.6860 0.7154
vn 0.0213 -0.9840 0.1771
vn 0.1797 -0.4338 0.8829
vn 0.1797 0.4338 0.8829
vn 0.4764 0.8684 0.1375
vn 0.1327 -0.6860 0.7154
vn 0.2044 0.1481 0.9676
vn 0.0995 0.9154 0.3900
vt 0.700000 0.300000
vt 0.700000 0.400000
vt 0.600000 0.400000
vt 0.600000 0.300000
vt 0.700000 0.600000
vt 0.700000 0.700000
vt 0.600000 0.700000
vt 0.600000 0.600000
vt 0.700000 0.900000
vt 0.650000 1.000000
vt 0.600000 0.900000
vt 0.700000 0.200000
vt 0.600000 0.200000
vt 0.700000 0.500000
vt 0.600000 0.500000
vt 0.700000 0.800000
vt 0.600000 0.800000
vt 0.700000 0.100000
vt 0.600000 0.100000
vt 0.650000 0.000000
vt 0.500000 0.400000
vt 0.500000 0.300000
vt 0.500000 0.700000
vt 0.500000 0.600000
vt 0.550000 1.000000
vt 0.500000 0.900000
vt 0.500000 0.200000
vt 0.500000 0.500000
vt 0.500000 0.800000
vt 0.500000 0.100000
vt 0.550000 0.000000
vt 0.400000 0.800000
vt 0.400000 0.700000
vt 0.450000 0.000000
vt 0.400000 0.100000
vt 0.400000 0.400000
vt 0.400000 0.300000
vt 0.400000 0.600000
vt 0.450000 1.000000
vt 0.400000 0.900000
vt 0.400000 0.200000
vt 0.400000 0.500000
vt 0.300000 0.500000
vt 0.300000 0.400000
vt 0.300000 0.800000
vt 0.300000 0.700000
vt 0.350000 0.000000
vt 0.300000 0.100000
vt 0.300000 0.300000
vt 0.300000 0.600000
vt 0.350000 1.000000
vt 0.300000 0.900000
vt 0.300000 0.200000
vt 0.200000 0.900000
vt 0.200000 0.800000
vt 0.200000 0.200000
vt 0.200000 0.100000
vt 0.200000 0.500000
vt 0.200000 0.400000
vt 0.200000 0.700000
vt 0.250000 0.000000
vt 0.200000 0.300000
vt 0.200000 0.600000
vt 0.250000 1.000000
vt 0.100000 0.300000
vt 0.100000 0.200000
vt 0.100000 0.600000
vt 0.100000 0.500000
vt 0.100000 0.900000
vt 0.100000 0.800000
vt 0.100000 0.100000
vt 0.100000 0.400000
vt 0.100000 0.700000
vt 0.150000 0.000000
vt 0.150000 1.000000
vt 0.000000 0.700000
vt 0.000000 0.600000
vt 0.050000 1.000000
vt 0.000000 0.900000
vt 0.000000 0.300000
vt 0.000000 0.200000
vt 0.000000 0.500000
vt 0.000000 0.800000
vt 0.000000 0.100000
vt 0.000000 0.400000
vt 0.050000 0.000000
vt 1.000000 0.300000
vt 1.000000 0.400000
vt 0.900000 0.400000
vt 0.900000 0.300000
vt 1.000000 0.600000
vt 1.000000 0.700000
vt 0.900000 0.700000
vt 0.900000 0.600000
vt 1.000000 0.900000
vt 0.950000 1.000000
vt 0.900000 0.900000
vt 1.000000 0.200000
vt 0.900000 0.200000
vt 1.000000 0.500000
vt 0.900000 0.500000
vt 1.000000 0.800000
vt 0.900000 0.800000
vt 1.000000 0.100000
vt 0.900000 0.100000
vt 0.950000 0.000000
vt 0.800000 0.800000
vt 0.800000 0.700000
vt 0.850000 0.000000
vt 0.800000 0.100000
vt 0.800000 0.400000
vt 0.800000 0.300000
vt 0.800000 0.600000
vt 0.850000 1.000000
vt 0.800000 0.900000
vt 0.800000 0.200000
vt 0.800000 0.500000
vt 0.750000 0.000000
vt 0.750000 1.000000
s 0
usemtl Material.002
f 90/1/1 89/2/1 6/3/1 7/4/1
f 87/5/2 86/6/2 3/7/2 4/8/2
f 84/9/3 46/10/3 1/11/3
f 91/12/4 90/1/4 7/4/4 8/13/4
f 88/14/5 87/5/5 4/8/5 5/15/5
f 85/16/6 84/9/6 1/11/6 2/17/6
f 92/18/7 91/12/7 8/13/7 9/19/7
f 89/2/8 88/14/8 5/15/8 6/3/8
f 86/6/9 85/16/9 2/17/9 3/7/9
f 65/20/10 92/18/10 9/19/10
f 7/4/11 6/3/11 15/21/11 16/22/11
f 4/8/12 3/7/12 12/23/12 13/24/12
f 1/11/13 46/25/13 10/26/13
f 8/13/14 7/4/14 16/22/14 17/27/14
f 5/15/15 4/8/15 13/24/15 14/28/15
f 2/17/16 1/11/16 10/26/16 11/29/16
f 9/19/17 8/13/17 17/27/17 18/30/17
f 6/3/18 5/15/18 14/28/18 15/21/18
f 3/7/19 2/17/19 11/29/19 12/23/19
f 65/31/20 9/19/20 18/30/20
f 12/23/21 11/29/21 20/32/21 21/33/21
f 65/34/22 18/30/22 27/35/22
f 16/22/23 15/21/23 24/36/23 25/37/23
f 13/24/24 12/23/24 21/33/24 22/38/24
f 10/26/25 46/39/25 19/40/25
f 17/27/26 16/22/26 25/37/26 26/41/26
f 14/28/27 13/24/27 22/38/27 23/42/27
f 11/29/28 10/26/28 19/40/28 20/32/28
f 18/30/29 17/27/29 26/41/29 27/35/29
f 15/21/30 14/28/30 23/42/30 24/36/30
f 24/36/31 23/42/31 32/43/31 33/44/31
f 21/33/32 20/32/32 29/45/32 30/46/32
f 65/47/33 27/35/33 36/48/33
f 25/37/34 24/36/34 33/44/34 34/49/34
f 22/38/35 21/33/35 30/46/35 31/50/35
f 19/40/36 46/51/36 28/52/36
f 26/41/37 25/37/37 34/49/37 35/53/37
f 23/42/38 22/38/38 31/50/38 32/43/38
f 20/32/39 19/40/39 28/52/39 29/45/39
f 27/35/40 26/41/40 35/53/40 36/48/40
f 29/45/41 28/52/41 37/54/41 38/55/41
f 36/48/42 35/53/42 44/56/42 45/57/42
f 33/44/43 32/43/43 41/58/43 42/59/43
f 30/46/44 29/45/44 38/55/44 39/60/44
f 65/61/45 36/48/45 45/57/45
f 34/49/46 33/44/46 42/59/46 43/62/46
f 31/50/47 30/46/47 39/60/47 40/63/47
f 28/52/48 46/64/48 37/54/48
f 35/53/49 34/49/49 43/62/49 44/56/49
f 32/43/50 31/50/50 40/63/50 41/58/50
f 44/56/51 43/62/51 53/65/51 54/66/51
f 41/58/52 40/63/52 50/67/52 51/68/52
f 38/55/53 37/54/53 47/69/53 48/70/53
f 45/57/54 44/56/54 54/66/54 55/71/54
f 42/59/55 41/58/55 51/68/55 52/72/55
f 39/60/56 38/55/56 48/70/56 49/73/56
f 65/74/57 45/57/57 55/71/57
f 43/62/58 42/59/58 52/72/58 53/65/58
f 40/63/59 39/60/59 49/73/59 50/67/59
f 37/54/60 46/75/60 47/69/60
f 50/67/61 49/73/61 58/76/61 59/77/61
f 47/69/62 46/78/62 56/79/62
f 54/66/63 53/65/63 62/80/63 63/81/63
f 51/68/64 50/67/64 59/77/64 60/82/64
f 48/70/65 47/69/65 56/79/65 57/83/65
f 55/71/66 54/66/66 63/81/66 64/84/66
f 52/72/67 51/68/67 60/82/67 61/85/67
f 49/73/68 48/70/68 57/83/68 58/76/68
f 65/86/69 55/71/69 64/84/69
f 53/65/70 52/72/70 61/85/70 62/80/70
f 62/87/71 61/88/71 71/89/71 72/90/71
f 59/91/72 58/92/72 68/93/72 69/94/72
f 56/95/73 46/96/73 66/97/73
f 63/98/74 62/87/74 72/90/74 73/99/74
f 60/100/75 59/91/75 69/94/75 70/101/75
f 57/102/76 56/95/76 66/97/76 67/103/76
f 64/104/77 63/98/77 73/99/77 74/105/77
f 61/88/78 60/100/78 70/101/78 71/89/78
f 58/92/79 57/102/79 67/103/79 68/93/79
f 65/106/80 64/104/80 74/105/80
f 68/93/81 67/103/81 76/107/81 77/108/81
f 65/109/82 74/105/82 83/110/82
f 72/90/83 71/89/83 80/111/83 81/112/83
f 69/94/84 68/93/84 77/108/84 78/113/84
f 66/97/85 46/114/85 75/115/85
f 73/99/86 72/90/86 81/112/86 82/116/86
f 70/101/87 69/94/87 78/113/87 79/117/87
f 67/103/88 66/97/88 75/115/88 76/107/88
f 74/105/89 73/99/89 82/116/89 83/110/89
f 71/89/90 70/101/90 79/117/90 80/111/90
f 83/110/91 82/116/91 91/12/91 92/18/91
f 80/111/92 79/117/92 88/14/92 89/2/92
f 77/108/93 76/107/93 85/16/93 86/6/93
f 65/118/94 83/110/94 92/18/94
f 81/112/95 80/111/95 89/2/95 90/1/95
f 78/113/96 77/108/96 86/6/96 87/5/96
f 75/115/97 46/119/97 84/9/97
f 82/116/98 81/112/98 90/1/98 91/12/98
f 79/117/99 78/113/99 87/5/99 88/14/99
f 76/107/100 75/115/100 84/9/100 85/16/100
o elica1
v 1.545473 -0.752217 -0.607931
v 1.545473 0.585678 0.874674
v 1.545473 -0.454179 -0.876880
v 1.545473 0.883717 0.605726
v 1.403951 -0.752217 -0.607931
v 1.403951 0.585678 0.874674
v 1.403951 -0.454179 -0.876880
v 1.403951 0.883717 0.605726
vn 0.9410 -0.2910 0.1727
vn 0.9410 -0.2016 0.2718
vn 0.9410 0.2016 -0.2718
vn 0.9410 0.2910 -0.1727
vn -0.9410 -0.2910 0.1727
vn -0.9410 -0.2016 0.2718
vn -0.9410 0.2016 -0.2718
vn -0.9410 0.2910 -0.1727
vt 0.375000 0.000000
vt 0.625000 0.000000
vt 0.625000 0.250000
vt 0.375000 0.250000
vt 0.625000 0.500000
vt 0.375000 0.500000
vt 0.625000 0.750000
vt 0.375000 0.750000
vt 0.625000 1.000000
vt 0.375000 1.000000
vt 0.125000 0.500000
vt 0.125000 0.750000
vt 0.875000 0.500000
vt 0.875000 0.750000
s 1
usemtl Material.008
f 93/120/101 95/123/103 96/122/104 94/121/102
f 95/123/103 99/125/107 100/124/108 96/122/104
f 99/125/107 97/127/105 98/126/106 100/124/108
f 97/127/105 93/129/101 94/128/102 98/126/106
f 95/130/103 93/131/101 97/127/105 99/125/107
f 100/124/108 98/126/106 94/133/102 96/132/104
o elica2
v 1.547770 -0.494549 0.841034
v 1.547770 0.888903 -0.556189
v 1.547770 -0.784457 0.553984
v 1.547770 0.598995 -0.843239
v 1.406247 -0.494549 0.841034
v 1.406247 0.888903 -0.556189
v 1.406247 -0.784457 0.553984
v 1.406247 0.598995 -0.843239
vn 0.9426 0.1846 0.2783
vn 0.9426 0.2801 0.1818
vn 0.9426 -0.2801 -0.1818
vn 0.9426 -0.1846 -0.2783
vn -0.9426 0.1846 0.2783
vn -0.9426 0.2801 0.1818
vn -0.9426 -0.2801 -0.1818
vn -0.9426 -0.1846 -0.2783
vt 0.375000 0.000000
vt 0.625000 0.000000
vt 0.625000 0.250000
vt 0.375000 0.250000
vt 0.625000 0.500000
vt 0.375000 0.500000
vt 0.625000 0.750000
vt 0.375000 0.750000
vt 0.625000 1.000000
vt 0.375000 1.000000
vt 0.125000 0.500000
vt 0.125000 0.750000
vt 0.875000 0.500000
vt 0.875000 0.750000
s 1
usemtl Material.007
f 101/134/109 103/137/111 104/136/112 102/135/110
f 103/137/111 107/139/115 108/138/116 104/136/112
f 107/139/115 105/141/113 106/140/114 108/138/116
f 105/141/113 101/143/109 102/142/110 106/140/114
f 103/144/111 101/145/109 105/141/113 107/139/115
f 108/138/116 106/140/114 102/147/110 104/146/112
