<?xml version="1.0" standalone="no"?>
<!DOCTYPE svg PUBLIC "-//W3C//DTD SVG 20010904//EN"
 "http://www.w3.org/TR/2001/REC-SVG-20010904/DTD/svg10.dtd">
<svg version="1.0" xmlns="http://www.w3.org/2000/svg"
 width="2048.000000pt" height="2048.000000pt" viewBox="0 0 2048.000000 2048.000000"
 preserveAspectRatio="xMidYMid meet">

<g transform="translate(0.000000,2048.000000) scale(0.100000,-0.100000)"
fill="#000000" stroke="none">
<path d="M2190 19393 c-8 -2 -24 -8 -35 -12 -11 -5 -31 -13 -45 -19 -64 -25
-157 -131 -178 -203 -6 -19 -24 -74 -41 -124 -48 -138 -61 -181 -61 -197 0 -8
-8 -44 -19 -79 -32 -109 -74 -329 -101 -524 -33 -243 -36 -780 -5 -1005 42
-313 55 -389 96 -550 6 -25 17 -70 24 -100 13 -51 37 -135 70 -240 18 -57 78
-226 94 -265 7 -16 22 -52 33 -80 125 -308 401 -795 553 -978 6 -7 29 -37 53
-67 150 -193 358 -415 525 -560 47 -41 47 -63 0 -128 -21 -28 -58 -83 -83
-122 -25 -39 -52 -82 -60 -94 -8 -13 -31 -50 -50 -81 -19 -31 -43 -69 -53 -84
-9 -14 -24 -39 -32 -56 -8 -16 -19 -37 -25 -45 -44 -72 -121 -216 -199 -375
-51 -104 -99 -201 -106 -215 -7 -14 -32 -70 -54 -125 -23 -55 -49 -115 -57
-132 -32 -73 -40 -94 -105 -270 -21 -55 -31 -84 -58 -163 -7 -19 -17 -51 -22
-70 -6 -19 -17 -49 -25 -67 -8 -17 -14 -37 -14 -45 0 -7 -6 -33 -15 -58 -64
-199 -153 -564 -186 -765 -5 -33 -14 -82 -20 -110 -10 -46 -24 -142 -48 -325
-47 -357 -64 -766 -50 -1210 5 -162 16 -356 24 -430 9 -74 18 -157 21 -185 7
-74 33 -250 49 -330 7 -38 18 -99 24 -135 10 -63 17 -93 60 -285 30 -136 40
-175 55 -230 8 -27 23 -81 34 -120 36 -125 94 -309 108 -342 8 -17 14 -37 14
-44 0 -13 26 -85 56 -156 8 -17 14 -35 14 -40 1 -4 9 -26 20 -48 11 -22 19
-48 20 -57 0 -9 4 -19 9 -22 5 -3 12 -18 16 -33 7 -29 10 -38 69 -166 20 -42
36 -79 36 -82 0 -6 108 -236 119 -255 5 -8 31 -57 56 -108 43 -85 130 -244
155 -282 6 -8 15 -26 20 -39 6 -13 24 -44 40 -68 17 -24 30 -46 30 -49 0 -2
16 -27 35 -54 19 -27 35 -52 35 -55 0 -3 16 -28 35 -55 19 -27 35 -52 35 -55
0 -3 16 -28 35 -55 41 -59 90 -129 142 -202 46 -67 116 -161 124 -168 3 -3 47
-59 99 -125 51 -66 109 -138 129 -161 20 -22 65 -74 101 -115 375 -428 900
-903 1310 -1184 47 -32 103 -73 126 -92 23 -18 44 -33 48 -33 3 0 28 -15 54
-33 26 -18 54 -36 62 -40 8 -4 42 -25 75 -47 51 -33 272 -164 385 -228 39 -22
408 -206 455 -227 17 -8 64 -29 105 -48 85 -39 134 -59 268 -111 50 -20 131
-52 180 -71 48 -19 93 -35 99 -35 7 0 27 -6 45 -14 53 -23 307 -101 458 -141
36 -9 94 -26 129 -36 35 -10 73 -19 84 -19 11 0 43 -7 71 -15 125 -35 426 -91
626 -115 47 -6 114 -15 150 -21 235 -37 731 -57 1413 -58 429 -1 548 -4 551
-14 47 -169 119 -380 163 -477 9 -19 21 -48 28 -65 43 -100 134 -277 168 -328
93 -134 238 -235 403 -278 65 -17 100 -20 194 -16 242 9 409 98 581 307 125
151 302 402 341 480 6 14 17 32 24 40 23 29 159 292 209 405 50 114 67 144 82
148 10 3 61 15 113 27 52 12 115 28 140 36 25 8 52 14 61 14 9 0 47 9 85 20
38 11 92 27 119 34 103 29 201 58 235 71 19 7 89 29 155 50 66 21 134 43 150
50 17 7 56 22 87 34 32 11 84 31 115 42 32 12 72 28 88 35 17 7 55 22 85 34
63 24 74 29 152 64 31 14 59 26 62 26 17 0 598 286 731 360 39 22 84 46 100
55 17 8 44 24 60 34 17 11 40 26 52 33 12 7 63 38 114 68 50 30 98 60 107 65
230 138 291 214 300 373 4 82 1 101 -19 154 -29 73 -96 146 -171 185 -48 25
-63 28 -158 27 -124 0 -122 1 -360 -153 -36 -23 -41 -26 -227 -134 -92 -54
-175 -102 -183 -107 -8 -5 -72 -38 -142 -74 -69 -36 -135 -69 -145 -75 -27
-15 -243 -115 -383 -178 -19 -8 -48 -22 -63 -29 -16 -8 -33 -14 -39 -14 -6 0
-29 -8 -52 -19 -81 -36 -117 -51 -129 -51 -7 -1 -30 -9 -52 -20 -22 -11 -46
-19 -53 -20 -8 0 -26 -7 -40 -15 -26 -14 -312 -110 -417 -140 -27 -8 -79 -23
-115 -34 -36 -11 -82 -23 -102 -27 -49 -8 -55 7 -39 100 41 245 54 550 36 841
-8 127 -20 250 -25 275 -6 25 -15 77 -20 115 -5 39 -18 111 -29 160 -48 214
-47 207 -87 330 -25 79 -44 167 -44 210 0 55 23 144 46 182 10 15 147 156 305
313 157 157 315 318 350 359 35 41 75 86 88 100 13 14 60 71 105 126 44 55 88
109 97 120 22 26 180 236 199 265 8 12 22 32 31 44 19 25 101 144 216 314 77
114 255 350 306 406 12 13 53 59 91 103 97 108 244 255 352 349 139 122 145
127 205 171 31 23 62 47 70 55 8 7 28 22 44 34 52 36 134 93 183 127 26 18 54
36 62 40 8 4 42 25 75 47 33 22 74 46 90 55 17 8 57 30 90 50 33 19 121 64
195 101 130 63 163 79 233 108 17 7 50 21 72 31 22 10 51 21 65 26 14 4 77 26
140 49 63 22 138 48 165 56 106 32 192 55 232 64 24 5 66 16 95 23 29 8 87 22
128 31 41 8 107 22 145 30 39 9 90 18 115 21 25 4 77 13 115 20 75 15 181 29
340 45 55 6 143 15 195 21 110 12 627 24 663 15 l25 -6 -15 -62 c-8 -35 -20
-88 -27 -119 -8 -30 -18 -71 -24 -90 -6 -19 -21 -68 -33 -109 -12 -41 -27 -93
-34 -115 -7 -22 -23 -74 -35 -115 -12 -41 -28 -91 -35 -110 -34 -96 -58 -158
-71 -188 -8 -18 -14 -37 -14 -42 0 -10 -59 -165 -86 -225 -7 -16 -24 -59 -39
-95 -14 -36 -30 -74 -35 -85 -33 -76 -100 -221 -184 -395 -14 -30 -44 -89 -67
-130 -22 -41 -52 -97 -67 -125 -77 -147 -354 -601 -409 -670 -5 -5 -27 -41
-49 -80 -119 -202 -58 -416 148 -521 45 -23 66 -27 139 -28 161 -1 240 56 388
279 25 39 50 78 56 87 5 9 28 43 50 75 22 32 45 67 51 78 6 11 19 34 30 52 44
72 212 361 234 403 13 25 34 63 46 85 99 180 291 593 359 773 14 37 32 80 40
95 8 16 15 34 15 40 0 7 7 25 15 40 8 15 19 42 24 60 6 18 22 64 36 102 15 39
30 84 36 100 5 17 13 39 18 50 5 11 19 54 31 95 12 41 28 91 35 110 43 120
155 538 187 695 5 28 16 75 23 105 8 30 23 107 35 170 11 63 27 149 35 190 7
41 23 140 34 220 89 644 80 809 -60 1095 -48 99 -51 104 -119 190 -168 215
-387 340 -675 385 -383 60 -866 79 -1355 53 -278 -15 -659 -58 -845 -94 -27
-6 -86 -17 -130 -25 -129 -23 -296 -60 -415 -93 -41 -11 -95 -26 -120 -32 -50
-12 -163 -44 -225 -64 -22 -7 -74 -23 -115 -35 -41 -13 -89 -29 -107 -37 -17
-7 -37 -13 -45 -13 -7 -1 -31 -9 -53 -20 -22 -11 -45 -19 -52 -20 -7 0 -27 -6
-45 -14 -18 -8 -60 -25 -93 -37 -70 -25 -103 -39 -166 -68 -25 -12 -49 -21
-52 -21 -4 0 -39 -15 -79 -34 -40 -18 -107 -49 -148 -67 -272 -124 -618 -315
-910 -504 -131 -85 -183 -120 -245 -164 -38 -27 -88 -62 -110 -78 -38 -26
-124 -92 -135 -103 -3 -3 -23 -18 -45 -35 -22 -16 -65 -50 -95 -75 -30 -26
-109 -91 -174 -146 -66 -54 -162 -135 -214 -179 -52 -44 -112 -93 -133 -110
-21 -16 -80 -65 -131 -109 -51 -43 -115 -97 -143 -120 -27 -22 -68 -57 -90
-76 -22 -20 -65 -56 -95 -80 -30 -25 -64 -53 -75 -63 -62 -58 -374 -283 -510
-369 -38 -24 -92 -59 -120 -76 -27 -18 -63 -39 -80 -47 -16 -9 -57 -31 -90
-50 -88 -51 -345 -176 -460 -225 -55 -23 -113 -48 -128 -56 -16 -8 -33 -14
-39 -14 -5 0 -24 -7 -41 -15 -42 -19 -112 -44 -162 -57 -22 -6 -45 -15 -50
-19 -6 -4 -29 -12 -50 -18 -22 -5 -53 -14 -70 -20 -93 -32 -331 -94 -455 -117
-41 -8 -82 -17 -90 -20 -19 -7 -177 -30 -475 -70 -187 -26 -827 -26 -1035 0
-286 34 -433 58 -605 96 -132 30 -176 40 -245 60 -41 11 -97 27 -125 34 -43
12 -163 51 -295 97 -47 16 -130 48 -155 59 -11 5 -49 21 -85 35 -36 15 -110
48 -165 74 -55 27 -107 51 -115 55 -8 3 -32 16 -52 29 -21 12 -59 34 -86 48
-75 42 -233 152 -340 236 -125 100 -350 321 -427 419 -33 43 -64 82 -70 88
-32 35 -141 193 -186 270 -19 32 -43 72 -53 90 -35 59 -136 264 -136 278 0 7
-6 22 -13 33 -13 21 -51 114 -60 150 -3 11 -17 52 -30 90 -51 142 -90 316
-123 545 -11 81 -16 188 -16 361 -1 247 10 367 47 539 8 36 17 83 21 105 10
65 68 272 90 323 8 18 14 40 14 50 0 9 6 29 14 44 8 15 17 42 21 60 4 18 11
38 15 43 4 6 11 21 15 35 4 14 13 39 20 55 8 17 26 59 40 94 29 70 115 255
145 311 10 19 37 69 59 110 22 41 47 89 56 105 8 17 24 44 35 60 11 17 24 39
29 51 5 11 29 54 53 95 25 41 57 102 72 134 37 79 62 105 100 105 55 0 358 30
451 45 286 47 379 67 635 142 51 14 145 46 245 80 22 8 54 20 72 28 17 8 36
15 41 15 6 0 23 6 39 14 15 7 44 20 63 29 148 65 302 139 375 181 33 19 79 44
103 56 24 13 71 40 105 62 100 65 231 152 242 161 6 4 51 38 101 75 230 170
484 401 651 596 49 55 91 103 94 106 3 3 45 54 92 115 104 132 129 190 128
298 -1 141 -68 235 -301 420 -41 33 -77 63 -80 66 -14 19 -142 111 -270 197
-47 31 -96 64 -110 74 -139 95 -484 275 -680 355 -36 14 -74 30 -85 34 -119
49 -353 126 -460 151 -22 6 -62 16 -90 24 -110 31 -327 73 -530 101 -174 24
-479 36 -735 29 -229 -7 -237 -6 -298 16 -98 36 -141 80 -275 285 -88 134
-257 361 -310 417 -7 7 -41 47 -77 88 -115 131 -284 297 -434 425 -32 28 -64
55 -70 60 -32 30 -314 237 -354 260 -9 6 -37 24 -62 40 -182 120 -552 312
-682 354 -21 7 -40 17 -43 22 -4 5 -14 9 -23 9 -9 0 -30 7 -45 15 -15 8 -42
19 -60 24 -18 5 -63 21 -102 34 -114 40 -342 107 -364 107 -9 0 -34 7 -56 15
-38 13 -153 19 -185 8z m410 -814 c30 -12 69 -28 87 -35 17 -8 36 -14 43 -14
7 0 24 -6 38 -14 15 -8 50 -24 77 -36 177 -76 476 -240 627 -345 214 -148 458
-359 617 -536 123 -136 134 -149 230 -274 88 -116 108 -144 211 -300 82 -125
158 -215 238 -280 71 -59 190 -133 257 -160 22 -9 54 -23 72 -31 17 -8 38 -14
46 -14 8 0 34 -8 58 -17 39 -15 95 -17 454 -18 471 -1 577 -10 905 -75 107
-21 175 -37 210 -48 19 -6 69 -20 110 -32 41 -12 90 -28 108 -36 18 -8 40 -14
50 -14 9 -1 35 -9 57 -20 22 -11 45 -19 51 -20 10 0 47 -15 129 -50 40 -17
200 -91 215 -99 8 -4 56 -30 105 -56 94 -50 265 -154 350 -214 28 -19 64 -44
80 -55 59 -40 83 -67 78 -86 -6 -24 -264 -276 -368 -360 -44 -35 -82 -67 -85
-70 -5 -7 -124 -93 -198 -145 -70 -49 -155 -103 -187 -120 -16 -8 -43 -24 -60
-34 -16 -11 -57 -34 -90 -51 -33 -17 -67 -35 -75 -40 -29 -19 -251 -120 -263
-120 -7 0 -21 -7 -31 -15 -11 -8 -27 -15 -35 -15 -9 -1 -34 -9 -56 -20 -22
-11 -45 -19 -52 -20 -7 0 -27 -6 -45 -14 -18 -7 -67 -24 -108 -36 -41 -13 -87
-27 -101 -32 -45 -16 -225 -56 -344 -77 -124 -22 -243 -41 -255 -41 -13 0 -11
54 8 183 7 42 17 112 23 155 7 42 14 187 16 322 4 224 3 252 -16 323 -22 83
-72 169 -119 204 -69 51 -122 67 -228 66 -94 0 -104 -2 -162 -33 -98 -52 -146
-110 -176 -212 -12 -43 -16 -102 -17 -255 -1 -303 -17 -474 -65 -673 -29 -119
-90 -317 -104 -335 -4 -5 -10 -23 -14 -40 -11 -47 -130 -285 -214 -429 -98
-169 -141 -248 -201 -371 -101 -207 -141 -295 -141 -308 0 -7 -6 -21 -13 -32
-7 -11 -23 -47 -35 -80 -13 -33 -29 -73 -36 -90 -12 -27 -26 -65 -65 -175 -50
-140 -128 -441 -160 -615 -38 -208 -61 -459 -61 -661 0 -126 26 -509 35 -524
3 -5 10 -44 15 -87 12 -97 51 -271 87 -388 9 -27 19 -66 23 -85 10 -44 85
-248 135 -365 26 -62 154 -316 176 -350 10 -16 26 -43 34 -60 38 -73 216 -330
290 -415 16 -20 50 -60 75 -90 109 -133 353 -375 465 -461 17 -13 58 -46 92
-74 238 -194 603 -407 883 -515 30 -12 69 -28 85 -35 34 -16 102 -41 155 -57
19 -5 40 -14 45 -19 6 -4 29 -12 50 -18 22 -5 67 -20 100 -31 83 -30 194 -63
350 -105 169 -46 204 -53 420 -94 33 -7 92 -18 130 -26 39 -7 97 -16 130 -20
33 -3 103 -12 155 -20 52 -8 228 -22 390 -31 248 -14 325 -15 485 -5 332 20
490 31 506 36 8 3 64 12 125 20 156 20 292 43 328 54 17 5 54 12 81 16 52 7
134 26 220 51 28 8 68 18 90 24 82 19 151 38 175 47 14 6 59 21 100 33 41 13
91 28 110 35 82 29 157 57 188 71 18 8 37 14 43 14 6 0 27 7 47 16 49 22 98
43 215 94 125 53 474 230 552 280 17 10 52 31 79 45 27 15 61 35 75 45 14 10
91 61 171 113 80 53 172 115 204 137 56 40 335 257 346 269 7 8 228 194 304
255 34 27 93 77 131 111 39 33 95 81 125 105 49 40 222 185 290 244 14 12 70
57 125 101 55 44 114 92 130 107 17 15 33 28 36 28 4 0 40 26 81 58 42 31 86
64 98 72 12 8 36 25 53 38 60 44 258 173 352 229 91 55 223 131 235 137 8 3
35 18 60 32 94 54 481 244 497 244 3 0 36 14 72 31 36 18 77 35 91 40 14 4 49
17 78 28 125 50 162 64 242 91 47 16 97 33 110 38 14 5 59 20 100 32 41 12 95
28 120 35 172 51 350 96 475 119 39 8 93 19 120 24 82 18 215 41 290 51 39 5
104 14 145 20 288 39 417 46 840 46 277 -1 455 -5 510 -13 47 -6 137 -16 201
-21 140 -12 211 -31 271 -74 130 -92 178 -231 148 -422 -5 -33 -14 -113 -20
-178 -6 -65 -17 -133 -24 -151 l-14 -33 -413 -7 c-228 -3 -448 -11 -489 -16
-41 -5 -122 -14 -180 -20 -99 -10 -248 -30 -370 -51 -30 -5 -95 -16 -145 -23
-49 -8 -97 -17 -105 -20 -8 -3 -49 -12 -90 -20 -131 -25 -228 -48 -375 -88
-141 -38 -182 -50 -270 -80 -49 -16 -103 -33 -120 -38 -38 -11 -114 -38 -140
-50 -57 -26 -119 -50 -127 -50 -5 0 -43 -16 -84 -35 -41 -19 -78 -35 -82 -35
-6 0 -371 -181 -402 -200 -8 -5 -53 -31 -98 -57 -46 -26 -94 -55 -107 -63 -13
-8 -45 -28 -72 -44 -26 -16 -69 -45 -95 -63 -131 -91 -160 -112 -245 -175
-120 -88 -231 -179 -362 -298 -141 -128 -216 -203 -425 -430 -23 -25 -69 -79
-102 -120 -32 -41 -64 -79 -70 -85 -21 -19 -254 -344 -289 -403 -48 -82 -89
-132 -108 -132 -12 0 -51 21 -87 46 -121 85 -140 95 -215 110 -69 14 -82 14
-146 0 -132 -31 -220 -112 -262 -243 -54 -165 20 -324 205 -445 65 -43 67 -61
10 -127 -72 -84 -204 -221 -342 -355 -346 -337 -371 -365 -448 -516 -44 -85
-59 -126 -88 -240 -35 -138 -34 -354 1 -490 37 -144 53 -199 61 -212 4 -6 13
-36 20 -67 7 -31 17 -74 23 -96 17 -71 40 -197 57 -310 22 -147 30 -543 14
-672 -34 -279 -60 -443 -80 -493 -5 -14 -12 -43 -15 -65 -4 -22 -12 -56 -19
-75 -8 -19 -24 -69 -36 -110 -12 -41 -28 -91 -35 -110 -8 -19 -26 -66 -40
-105 -57 -146 -204 -444 -241 -486 -8 -8 -14 -18 -14 -21 0 -7 -49 -84 -102
-161 -62 -90 -190 -252 -201 -254 -7 -2 -17 0 -23 5 -26 18 -182 387 -199 472
-4 19 -11 41 -16 50 -8 14 -25 77 -55 205 -8 33 -21 103 -30 155 -8 52 -19
113 -25 135 -15 62 -23 582 -10 725 19 229 55 408 138 680 102 338 123 458
123 710 0 119 -23 341 -39 383 -6 16 -11 38 -11 50 0 47 -74 260 -134 386 -95
197 -334 268 -512 151 -67 -43 -110 -93 -139 -160 -26 -59 -28 -207 -3 -265
74 -175 100 -267 119 -414 11 -90 3 -112 -45 -127 -11 -3 -39 -14 -61 -24 -22
-9 -83 -34 -135 -54 -52 -21 -105 -41 -117 -46 -12 -5 -57 -21 -100 -35 -43
-14 -91 -30 -108 -36 -252 -87 -704 -201 -950 -238 -38 -6 -95 -15 -125 -20
-556 -92 -1294 -103 -1785 -26 -49 8 -112 17 -140 20 -27 3 -81 13 -120 21
-38 8 -104 22 -145 30 -41 9 -104 25 -139 35 -35 10 -75 19 -87 19 -12 0 -35
5 -51 11 -15 6 -50 17 -78 25 -86 23 -146 42 -260 82 -156 56 -176 64 -205 79
-14 7 -30 13 -36 13 -13 0 -85 30 -169 71 -33 16 -64 29 -68 29 -16 0 -286
139 -402 207 -22 13 -53 30 -70 38 -16 9 -57 33 -90 55 -33 22 -67 43 -75 47
-14 7 -70 44 -210 142 -72 50 -271 202 -310 237 -14 12 -61 52 -105 89 -109
92 -445 432 -525 530 -35 44 -67 82 -71 85 -9 7 -178 229 -218 286 -81 116
-146 214 -188 284 -24 41 -48 82 -53 90 -55 86 -195 360 -259 505 -17 39 -38
83 -46 98 -8 16 -15 34 -15 40 -1 7 -9 30 -20 52 -11 22 -19 47 -20 56 0 8 -4
19 -9 25 -14 14 -85 222 -126 369 -53 189 -96 362 -105 420 -4 28 -14 88 -23
135 -98 525 -112 1187 -36 1765 6 44 14 114 20 155 9 76 31 202 51 295 5 28
16 82 24 120 22 118 69 307 119 480 36 124 58 192 70 220 7 17 16 45 20 63 4
18 13 45 21 60 8 15 14 34 14 43 0 15 17 60 56 146 8 17 14 37 14 45 0 8 7 23
15 34 8 10 15 25 15 32 0 8 7 30 16 50 18 41 47 105 72 166 19 44 237 483 252
506 5 8 38 64 72 123 35 60 70 119 78 132 8 13 28 45 44 71 28 46 93 143 171
254 21 30 72 100 114 155 97 126 106 142 132 211 28 75 28 153 -1 231 -29 80
-67 124 -193 221 -169 131 -345 295 -511 477 -119 130 -362 464 -416 570 -5
11 -21 38 -34 60 -45 73 -173 339 -211 435 -20 52 -42 109 -50 125 -7 17 -23
64 -35 105 -12 41 -29 91 -36 110 -8 19 -18 55 -24 80 -5 25 -19 83 -30 130
-20 79 -30 134 -59 315 -22 141 -41 375 -41 511 0 144 22 441 42 554 6 36 16
99 23 140 22 129 46 224 58 232 18 11 26 10 87 -13z m3038 -13979 c9 -5 35
-16 57 -24 22 -7 85 -30 140 -51 55 -20 120 -43 145 -50 171 -53 319 -94 378
-106 23 -5 51 -13 61 -19 11 -5 29 -10 41 -10 12 0 63 -9 113 -20 173 -38 232
-50 307 -59 41 -6 107 -15 145 -20 178 -26 367 -42 555 -50 274 -10 838 3
1015 24 254 29 484 60 550 74 28 5 79 15 115 22 99 17 190 36 240 48 82 19
134 32 175 42 91 21 280 73 330 90 17 6 46 15 65 19 39 10 116 35 170 55 19 8
47 16 62 19 14 3 33 9 42 12 19 7 21 -15 6 -78 -49 -215 -82 -566 -79 -839 2
-143 -1 -213 -9 -221 -13 -13 -1344 -4 -1487 11 -199 20 -305 32 -400 47 -135
20 -319 52 -380 65 -27 6 -79 17 -115 25 -90 18 -168 37 -285 69 -208 56 -270
75 -435 133 -193 67 -229 80 -267 97 -17 8 -36 15 -43 15 -7 0 -24 6 -38 14
-15 8 -72 33 -127 57 -119 50 -280 125 -390 182 -96 49 -209 108 -233 122
-125 71 -228 133 -277 165 -33 22 -67 43 -75 48 -41 21 -90 55 -90 62 0 4 -11
11 -25 14 -14 4 -23 11 -20 16 8 13 40 13 63 0z"/>
<path d="M16524 5831 c-93 -24 -190 -106 -236 -199 -19 -40 -23 -63 -23 -147
0 -121 20 -173 99 -251 74 -75 138 -99 251 -98 74 1 100 6 145 26 71 33 133
96 170 176 26 53 30 74 30 146 0 66 -5 95 -24 137 -33 75 -93 140 -166 178
-51 27 -75 34 -138 37 -42 2 -91 0 -108 -5z"/>
</g>
</svg>
